<svg xmlns="http://www.w3.org/2000/svg" width="150" height="150" viewBox="0 0 150 150" fill="none"><g clip-path="url(#clip0_4591_997)"><path d="M70.8403 141.81C107.738 141.81 137.65 111.898 137.65 74.9999C137.65 38.1018 107.738 8.18994 70.8403 8.18994C33.9421 8.18994 4.03027 38.1018 4.03027 74.9999C4.03027 111.898 33.9421 141.81 70.8403 141.81Z" fill="#EFECF4"></path><path d="M150.69 122.86H11.86C10.95 122.86 10.21 122.12 10.21 121.21C10.21 120.3 10.95 119.56 11.86 119.56H150.69C151.6 119.56 152.34 120.3 152.34 121.21C152.34 122.12 151.6 122.86 150.69 122.86Z" fill="#160E6D"></path><path d="M64.4703 120.52C70.6503 120.52 75.6603 115.51 75.6603 109.33C75.6603 103.15 70.6503 98.1401 64.4703 98.1401C58.2902 98.1401 53.2803 103.15 53.2803 109.33C53.2803 115.51 58.2902 120.52 64.4703 120.52Z" fill="#160E6D"></path><path d="M132.43 120.52C138.61 120.52 143.62 115.51 143.62 109.33C143.62 103.15 138.61 98.1401 132.43 98.1401C126.25 98.1401 121.24 103.15 121.24 109.33C121.24 115.51 126.25 120.52 132.43 120.52Z" fill="#160E6D"></path><path d="M95.42 110.04H25.81C22.07 110.04 19.04 107.01 19.04 103.27V47.4399C19.04 43.6999 22.07 40.6699 25.81 40.6699H95.42V110.04Z" fill="white"></path><path d="M95.4201 111.7H25.8101C21.1701 111.7 17.3901 107.92 17.3901 103.28V47.44C17.3901 42.8 21.1701 39.02 25.8101 39.02H95.4201C96.3301 39.02 97.0701 39.76 97.0701 40.67V110.04C97.0701 110.95 96.3301 111.69 95.4201 111.69V111.7ZM25.8101 42.32C22.9901 42.32 20.6901 44.62 20.6901 47.44V103.28C20.6901 106.1 22.9901 108.4 25.8101 108.4H93.7701V42.32H25.8101Z" fill="#160E6D"></path><path d="M82.3398 40.6699H104.25C107.02 40.6699 109.26 42.9199 109.26 45.6799V109.33H82.3398V40.6699Z" fill="white"></path><path d="M109.26 110.98H82.3399C81.4299 110.98 80.6899 110.24 80.6899 109.33V40.67C80.6899 39.76 81.4299 39.02 82.3399 39.02H104.25C107.92 39.02 110.91 42.01 110.91 45.68V109.33C110.91 110.24 110.17 110.98 109.26 110.98ZM83.9899 107.68H107.61V45.68C107.61 43.83 106.1 42.32 104.25 42.32H83.9899V107.68Z" fill="#160E6D"></path><path d="M124.65 81.5802H90.0103V60.9502H119.62L124.65 81.5802Z" fill="#A09AE6"></path><path d="M88.8101 55.3701H121.18C122.72 55.3701 123.97 56.6201 123.97 58.1601C123.97 59.7001 122.72 60.9501 121.18 60.9501H88.8101V55.3701Z" fill="white"></path><path d="M121.18 62.6002H88.8102C87.9002 62.6002 87.1602 61.8602 87.1602 60.9502V55.3702C87.1602 54.4602 87.9002 53.7202 88.8102 53.7202H121.18C123.63 53.7202 125.62 55.7102 125.62 58.1602C125.62 60.6102 123.63 62.6002 121.18 62.6002ZM90.4602 59.3002H121.18C121.81 59.3002 122.32 58.7902 122.32 58.1602C122.32 57.5302 121.81 57.0202 121.18 57.0202H90.4602V59.3002Z" fill="#160E6D"></path><path d="M103.17 83.2302C102.41 83.2302 101.73 82.7102 101.56 81.9402L97.8701 65.4402C97.6701 64.5502 98.2301 63.6702 99.1201 63.4702C100.01 63.2702 100.89 63.8302 101.09 64.7202L104.78 81.2202C104.98 82.1102 104.42 82.9902 103.53 83.1902C103.41 83.2202 103.29 83.2302 103.17 83.2302Z" fill="#160E6D"></path><path d="M88.8101 110.04H124.32V90.7301L103.17 81.5801H88.8101V110.04Z" fill="white"></path><path d="M124.32 111.7H88.8102C87.9002 111.7 87.1602 110.96 87.1602 110.05V81.5899C87.1602 80.6799 87.9002 79.9399 88.8102 79.9399H103.17C103.4 79.9399 103.62 79.9899 103.82 80.0799L124.96 89.2199C125.56 89.4799 125.96 90.0799 125.96 90.7299V110.05C125.96 110.96 125.22 111.7 124.31 111.7H124.32ZM90.4602 108.4H122.67V91.8199L102.84 83.2399H90.4702V108.4H90.4602Z" fill="#160E6D"></path><path d="M124.32 110.04H143.77C147.1 110.04 149.8 107.34 149.8 104.01V96.1302C149.8 93.1402 147.38 90.7202 144.39 90.7202H124.33V110.04H124.32Z" fill="white"></path><path d="M143.77 111.7H124.32C123.41 111.7 122.67 110.96 122.67 110.05V90.7301C122.67 89.8201 123.41 89.0801 124.32 89.0801H144.38C148.28 89.0801 151.44 92.2501 151.44 96.1501V104.03C151.44 108.26 148 111.71 143.76 111.71L143.77 111.7ZM125.97 108.4H143.77C146.18 108.4 148.15 106.44 148.15 104.02V96.1401C148.15 94.0601 146.46 92.3801 144.39 92.3801H125.98V108.4H125.97Z" fill="#160E6D"></path><path d="M124.32 90.7301H144.38C146.08 90.7301 147.03 91.4001 147.03 91.4001L124.36 81.5801H103.17L124.31 90.7201L124.32 90.7301Z" fill="white"></path><path d="M147.03 93.0502C146.81 93.0502 146.59 93.0102 146.38 92.9102L145.43 92.5002C145.16 92.4302 144.81 92.3802 144.38 92.3802H124.32C124.09 92.3802 123.87 92.3302 123.67 92.2402L102.53 83.1002C101.81 82.7902 101.41 82.0202 101.57 81.2502C101.73 80.4802 102.4 79.9302 103.19 79.9302H124.38C124.61 79.9302 124.83 79.9802 125.04 80.0702L146.59 89.4002C147.43 89.6602 147.92 89.9902 148.01 90.0502C148.7 90.5402 148.91 91.4702 148.5 92.2102C148.2 92.7502 147.64 93.0502 147.06 93.0502H147.03ZM124.66 89.0802H137.52L124.02 83.2402H111.15L124.66 89.0802Z" fill="#160E6D"></path><path d="M53.8703 62.5998H41.9903C41.0803 62.5998 40.3403 61.8598 40.3403 60.9498C40.3403 60.0398 41.0803 59.2998 41.9903 59.2998H53.8703C54.7803 59.2998 55.5203 60.0398 55.5203 60.9498C55.5203 61.8598 54.7803 62.5998 53.8703 62.5998Z" fill="#160E6D"></path><path d="M35.2102 62.5998H-0.689844C-1.59984 62.5998 -2.33984 61.8598 -2.33984 60.9498C-2.33984 60.0398 -1.59984 59.2998 -0.689844 59.2998H35.2102C36.1202 59.2998 36.8602 60.0398 36.8602 60.9498C36.8602 61.8598 36.1202 62.5998 35.2102 62.5998Z" fill="#160E6D"></path><path d="M35.2099 75.5202H12.0899C11.1799 75.5202 10.4399 74.7802 10.4399 73.8702C10.4399 72.9602 11.1799 72.2202 12.0899 72.2202H35.2099C36.1199 72.2202 36.8599 72.9602 36.8599 73.8702C36.8599 74.7802 36.1199 75.5202 35.2099 75.5202Z" fill="#160E6D"></path><path d="M38.6402 120.52C44.8203 120.52 49.8302 115.51 49.8302 109.33C49.8302 103.15 44.8203 98.1401 38.6402 98.1401C32.4601 98.1401 27.4502 103.15 27.4502 109.33C27.4502 115.51 32.4601 120.52 38.6402 120.52Z" fill="#A09AE6"></path><path d="M38.6398 113.9C41.1638 113.9 43.2098 111.854 43.2098 109.33C43.2098 106.806 41.1638 104.76 38.6398 104.76C36.1159 104.76 34.0698 106.806 34.0698 109.33C34.0698 111.854 36.1159 113.9 38.6398 113.9Z" fill="white"></path><path d="M38.6399 115.55C35.2099 115.55 32.4199 112.76 32.4199 109.33C32.4199 105.9 35.2099 103.11 38.6399 103.11C42.0699 103.11 44.8599 105.9 44.8599 109.33C44.8599 112.76 42.0699 115.55 38.6399 115.55ZM38.6399 106.4C37.0299 106.4 35.7199 107.71 35.7199 109.32C35.7199 110.93 37.0299 112.24 38.6399 112.24C40.2499 112.24 41.5599 110.93 41.5599 109.32C41.5599 107.71 40.2499 106.4 38.6399 106.4Z" fill="#160E6D"></path><path d="M107.18 120.52C113.36 120.52 118.37 115.51 118.37 109.33C118.37 103.15 113.36 98.1401 107.18 98.1401C101 98.1401 95.9902 103.15 95.9902 109.33C95.9902 115.51 101 120.52 107.18 120.52Z" fill="#A09AE6"></path><path d="M107.18 113.9C109.704 113.9 111.75 111.854 111.75 109.33C111.75 106.806 109.704 104.76 107.18 104.76C104.656 104.76 102.61 106.806 102.61 109.33C102.61 111.854 104.656 113.9 107.18 113.9Z" fill="white"></path><path d="M107.18 115.55C103.75 115.55 100.96 112.76 100.96 109.33C100.96 105.9 103.75 103.11 107.18 103.11C110.61 103.11 113.4 105.9 113.4 109.33C113.4 112.76 110.61 115.55 107.18 115.55ZM107.18 106.4C105.57 106.4 104.26 107.71 104.26 109.32C104.26 110.93 105.57 112.24 107.18 112.24C108.79 112.24 110.1 110.93 110.1 109.32C110.1 107.71 108.79 106.4 107.18 106.4Z" fill="#160E6D"></path><path d="M88.8102 85.8201C87.9002 85.8201 87.1602 85.0801 87.1602 84.1701V60.9601C87.1602 60.0501 87.9002 59.3101 88.8102 59.3101C89.7202 59.3101 90.4602 60.0501 90.4602 60.9601V84.1701C90.4602 85.0801 89.7202 85.8201 88.8102 85.8201Z" fill="#160E6D"></path></g><defs><clipPath id="clip0_4591_997"><rect width="150" height="150" fill="white"></rect></clipPath></defs></svg>